HIERARCHY
ROOT hip
{
  OFFSET 0.00112043 5.09927 -9.65472
  CHANNELS 6 Xposition Yposition Zposition Zrotation Xrotation Yrotation
  JOINT abdomen
  {
    OFFSET 0 -1.186 -1.5018
    CHANNELS 3 Zrotation Xrotation Yrotation
    JOINT abdomen2
    {
      OFFSET 0 9.964 0.2134
      CHANNELS 3 Zrotation Xrotation Yrotation
      JOINT chest
      {
        OFFSET 0 13.134 -3.2573
        CHANNELS 3 Zrotation Xrotation Yrotation
        JOINT neck
        {
          OFFSET 0 20.686 -1.6905
          CHANNELS 3 Zrotation Xrotation Yrotation
          JOINT head
          {
            OFFSET 0 7.238 -0.1237
            CHANNELS 3 Zrotation Xrotation Yrotation
            End Site
            {
              OFFSET 0 0 0
            }
          }
        }
        JOINT lCollar
        {
          OFFSET 1.7069 20.075 5.0056
          CHANNELS 3 Zrotation Xrotation Yrotation
          JOINT lShldr
          {
            OFFSET 13.6458 -0.047 -4.849
            CHANNELS 3 Zrotation Xrotation Yrotation
            JOINT lForeArm
            {
              OFFSET 28.3255 -0.9759 2.2888
              CHANNELS 3 Zrotation Xrotation Yrotation
              JOINT lHand
              {
                OFFSET 22.1583 -0.53 10.8316
                CHANNELS 3 Zrotation Xrotation Yrotation
                JOINT lThumb1
                {
                  OFFSET 0.786 0.112 2.5817
                  CHANNELS 3 Zrotation Xrotation Yrotation
                  JOINT lThumb2
                  {
                    OFFSET 0.3601 -0.878 4.2331
                    CHANNELS 3 Zrotation Xrotation Yrotation
                    JOINT lThumb2_End
                    {
                      OFFSET 1.8127 -1.216 2.2227
                      CHANNELS 3 Zrotation Xrotation Yrotation
                      End Site
                      {
                        OFFSET 0.0181 -0.0122 0.0222
                      }
                    }
                  }
                }
                JOINT lCarpal1
                {
                  OFFSET 0.9571 1.114 1.7695
                  CHANNELS 3 Zrotation Xrotation Yrotation
                  JOINT lIndex1
                  {
                    OFFSET 4.1246 0.487 4.1451
                    CHANNELS 3 Zrotation Xrotation Yrotation
                    JOINT lIndex2
                    {
                      OFFSET 3.4052 -1.454 2.7682
                      CHANNELS 3 Zrotation Xrotation Yrotation
                      JOINT lIndex2_End
                      {
                        OFFSET 1.4531 -1.795 1.2713
                        CHANNELS 3 Zrotation Xrotation Yrotation
                        End Site
                        {
                          OFFSET 0.0145 -0.0179 0.0127
                        }
                      }
                    }
                  }
                  JOINT lMid1
                  {
                    OFFSET 5.6954 0.21 2.1184
                    CHANNELS 3 Zrotation Xrotation Yrotation
                    JOINT lMid2
                    {
                      OFFSET 3.9766 -1.54 2.3863
                      CHANNELS 3 Zrotation Xrotation Yrotation
                      JOINT lMid2_End
                      {
                        OFFSET 1.4042 -1.926 1.125
                        CHANNELS 3 Zrotation Xrotation Yrotation
                        End Site
                        {
                          OFFSET 0.014 -0.0193 0.0113
                        }
                      }
                    }
                  }
                }
                JOINT lCarpal2
                {
                  OFFSET 2.0956 0.66 -0.3894
                  CHANNELS 3 Zrotation Xrotation Yrotation
                  JOINT lRing1
                  {
                    OFFSET 5.0395 -0.09 2.4971
                    CHANNELS 3 Zrotation Xrotation Yrotation
                    JOINT lRing2
                    {
                      OFFSET 3.7921 -1.552 1.4806
                      CHANNELS 3 Zrotation Xrotation Yrotation
                      JOINT lRing2_End
                      {
                        OFFSET 1.4655 -1.808 0.9609
                        CHANNELS 3 Zrotation Xrotation Yrotation
                        End Site
                        {
                          OFFSET 0.0147 -0.0181 0.0096
                        }
                      }
                    }
                  }
                  JOINT lPinky1
                  {
                    OFFSET 4.9141 -1.269 0.3591
                    CHANNELS 3 Zrotation Xrotation Yrotation
                    JOINT lPinky2
                    {
                      OFFSET 3.1477 -1.685 0.8462
                      CHANNELS 3 Zrotation Xrotation Yrotation
                      JOINT lPinky2_End
                      {
                        OFFSET 0.8055 -1.585 0.7955
                        CHANNELS 3 Zrotation Xrotation Yrotation
                        End Site
                        {
                          OFFSET 0.0081 -0.0158 0.008
                        }
                      }
                    }
                  }
                }
              }
            }
          }
        }
        JOINT rCollar
        {
          OFFSET -1.7069 20.075 5.0056
          CHANNELS 3 Zrotation Xrotation Yrotation
          JOINT rShldr
          {
            OFFSET -13.6458 -0.047 -4.849
            CHANNELS 3 Zrotation Xrotation Yrotation
            JOINT rForeArm
            {
              OFFSET -28.3255 -0.9759 2.2888
              CHANNELS 3 Zrotation Xrotation Yrotation
              JOINT rHand
              {
                OFFSET -22.1583 -0.53 10.8316
                CHANNELS 3 Zrotation Xrotation Yrotation
                JOINT rThumb1
                {
                  OFFSET -0.786 0.112 2.5817
                  CHANNELS 3 Zrotation Xrotation Yrotation
                  JOINT rThumb2
                  {
                    OFFSET -0.3601 -0.878 4.2331
                    CHANNELS 3 Zrotation Xrotation Yrotation
                    JOINT rThumb2_End
                    {
                      OFFSET -1.8127 -1.216 2.2227
                      CHANNELS 3 Zrotation Xrotation Yrotation
                      End Site
                      {
                        OFFSET -0.0181 -0.0122 0.0222
                      }
                    }
                  }
                }
                JOINT rCarpal1
                {
                  OFFSET -0.9571 1.114 1.7695
                  CHANNELS 3 Zrotation Xrotation Yrotation
                  JOINT rIndex1
                  {
                    OFFSET -4.1246 0.487 4.1451
                    CHANNELS 3 Zrotation Xrotation Yrotation
                    JOINT rIndex2
                    {
                      OFFSET -3.4052 -1.454 2.7682
                      CHANNELS 3 Zrotation Xrotation Yrotation
                      JOINT rIndex2_End
                      {
                        OFFSET -1.4531 -1.795 1.2713
                        CHANNELS 3 Zrotation Xrotation Yrotation
                        End Site
                        {
                          OFFSET -0.0145 -0.018 0.0127
                        }
                      }
                    }
                  }
                  JOINT rMid1
                  {
                    OFFSET -5.6954 0.21 2.1184
                    CHANNELS 3 Zrotation Xrotation Yrotation
                    JOINT rMid2
                    {
                      OFFSET -3.9766 -1.54 2.3863
                      CHANNELS 3 Zrotation Xrotation Yrotation
                      JOINT rMid2_End
                      {
                        OFFSET -1.4042 -1.926 1.125
                        CHANNELS 3 Zrotation Xrotation Yrotation
                        End Site
                        {
                          OFFSET -0.014 -0.0193 0.0113
                        }
                      }
                    }
                  }
                }
                JOINT rCarpal2
                {
                  OFFSET -2.0956 0.66 -0.3894
                  CHANNELS 3 Zrotation Xrotation Yrotation
                  JOINT rRing1
                  {
                    OFFSET -5.0395 -0.09 2.4971
                    CHANNELS 3 Zrotation Xrotation Yrotation
                    JOINT rRing2
                    {
                      OFFSET -3.7921 -1.552 1.4806
                      CHANNELS 3 Zrotation Xrotation Yrotation
                      JOINT rRing2_End
                      {
                        OFFSET -1.4655 -1.808 0.9609
                        CHANNELS 3 Zrotation Xrotation Yrotation
                        End Site
                        {
                          OFFSET -0.0147 -0.0181 0.0096
                        }
                      }
                    }
                  }
                  JOINT rPinky1
                  {
                    OFFSET -4.9141 -1.269 0.3592
                    CHANNELS 3 Zrotation Xrotation Yrotation
                    JOINT rPinky2
                    {
                      OFFSET -3.1477 -1.685 0.8462
                      CHANNELS 3 Zrotation Xrotation Yrotation
                      JOINT rPinky2_End
                      {
                        OFFSET -0.8055 -1.585 0.7955
                        CHANNELS 3 Zrotation Xrotation Yrotation
                        End Site
                        {
                          OFFSET -0.0081 -0.0158 0.008
                        }
                      }
                    }
                  }
                }
              }
            }
          }
        }
      }
    }
  }
  JOINT lThigh
  {
    OFFSET 8.367 -8.2066 0.5982
    CHANNELS 3 Zrotation Xrotation Yrotation
    JOINT lShin
    {
      OFFSET 2.1923 -43.463 -0.4932
      CHANNELS 3 Zrotation Xrotation Yrotation
      JOINT lFoot
      {
        OFFSET 0.7333 -45.8593 -2.6451
        CHANNELS 3 Zrotation Xrotation Yrotation
        End Site
        {
          OFFSET 2.6618 -4.2699 12.3931
        }
      }
    }
  }
  JOINT rThigh
  {
    OFFSET -8.367 -8.2066 0.5982
    CHANNELS 3 Zrotation Xrotation Yrotation
    JOINT rShin
    {
      OFFSET -2.1923 -43.463 -0.4931
      CHANNELS 3 Zrotation Xrotation Yrotation
      JOINT rFoot
      {
        OFFSET -0.7333 -45.8593 -2.6451
        CHANNELS 3 Zrotation Xrotation Yrotation
        End Site
        {
          OFFSET -2.6618 -4.2699 12.3931
        }
      }
    }
  }
}
MOTION
Frames:	5
Frame Time:	0.0333333
0 91.7903 2.51682 0 0 -0 0 0 -0 0 0 -0 0 0 -0 0 0 -0 0 0 -0 0 0 -0 1.66051 0.0835086 5.75766 -0.0175111 0.895433 15.7816 7.95139e-016 -1.98785e-016 -0 5.46658e-016 -3.97569e-016 -0 5.96354e-016 0 -0 3.97569e-016 1.98785e-016 9.54166e-015 1.49089e-016 -3.97569e-016 -0 6.4605e-016 0 3.18055e-015 5.96354e-016 0 3.18055e-015 8.94531e-016 -1.98785e-016 6.36111e-015 6.4605e-016 0 3.18055e-015 5.96354e-016 0 3.18055e-015 8.94531e-016 -1.98785e-016 6.36111e-015 1.49089e-016 -3.97569e-016 -0 6.4605e-016 0 3.18055e-015 5.96354e-016 0 3.18055e-015 8.94531e-016 -1.98785e-016 6.36111e-015 6.4605e-016 0 3.18055e-015 5.96354e-016 0 3.18055e-015 8.94531e-016 -1.98785e-016 6.36111e-015 0 0 -0 -1.4496 0.0636048 -5.0245 -1.74811 1.20616 -16.8394 -1.19271e-015 1.98785e-016 -3.18055e-015 -3.97569e-016 1.98785e-016 -3.18055e-015 -2.98177e-016 1.98785e-016 -3.18055e-015 -2.98177e-016 3.97569e-016 -0 4.96962e-016 0 -6.36111e-015 -9.93923e-017 3.97569e-016 -0 -8.94531e-016 5.96354e-016 -0 -3.97569e-016 3.97569e-016 -0 -9.93923e-017 3.97569e-016 -0 -8.94531e-016 5.96354e-016 -0 -3.97569e-016 3.97569e-016 -0 4.96962e-016 0 -6.36111e-015 -9.93923e-017 3.97569e-016 -0 -8.94531e-016 5.96354e-016 -0 -3.97569e-016 3.97569e-016 -0 -9.93923e-017 3.97569e-016 -0 -8.94531e-016 5.96354e-016 -0 -3.97569e-016 3.97569e-016 -0 -4.66111 -0.998717 0.12318 0.00986924 1.54847 0.176523 4.65186 -0.572283 -0.254274 4.66111 -0.998765 -0.123176 -0.00986867 1.54869 -0.176537 -4.65186 -0.572453 0.25427 
44.9551 2.08956 -3.98416 -0 -26.5637 -0 -0.0114655 -3.13145 -0.138774 -0.0306088 -6.26286 -0.278804 -0.0306089 -6.26286 -0.278804 -5.39131e-006 18.9865 3.21193e-006 -6.54489e-008 9.3137 7.26537e-009 -14.8218 14.8 3.43769 -70.7068 -9.92713 -38.2718 22.6417 29.647 -10.9412 -56.0728 30.5937 16.4439 -1.23414e-006 -5.39351e-007 -4.5552e-007 6.36111e-015 0 -1.59028e-015 -6.36111e-015 -1.59028e-015 4.77083e-015 9.54166e-015 0 -0 -1.23414e-006 -5.39351e-007 -4.5552e-007 -6.36111e-015 3.18055e-015 3.18055e-015 -9.54166e-015 -1.59028e-015 1.59028e-015 -1.23414e-006 -5.39351e-007 -4.5552e-007 -6.36111e-015 3.18055e-015 3.18055e-015 -9.54166e-015 -1.59028e-015 1.59028e-015 9.54166e-015 0 -0 -1.23414e-006 -5.39351e-007 -4.5552e-007 -6.36111e-015 3.18055e-015 3.18055e-015 -9.54166e-015 -1.59028e-015 1.59028e-015 -1.23414e-006 -5.39351e-007 -4.5552e-007 -6.36111e-015 3.18055e-015 3.18055e-015 -9.54166e-015 -1.59028e-015 1.59028e-015 14.8427 14.5128 -3.18088 70.4805 -10.0118 38.6573 -24.6486 29.1705 11.1921 56.3761 31.4772 -16.4903 4.93075e-007 5.60952e-007 -4.01427e-007 9.8615e-007 1.1219e-006 -8.02854e-007 4.93075e-007 5.60952e-007 -4.01427e-007 3.18055e-015 -7.95139e-015 -3.18055e-015 4.93075e-007 5.60952e-007 -4.01427e-007 9.8615e-007 1.1219e-006 -8.02854e-007 4.93075e-007 5.60952e-007 -4.01427e-007 4.93075e-007 5.60952e-007 -4.01427e-007 9.8615e-007 1.1219e-006 -8.02854e-007 4.93075e-007 5.60952e-007 -4.01427e-007 3.18055e-015 -7.95139e-015 -3.18055e-015 4.93075e-007 5.60952e-007 -4.01427e-007 9.8615e-007 1.1219e-006 -8.02854e-007 4.93075e-007 5.60952e-007 -4.01427e-007 4.93075e-007 5.60952e-007 -4.01427e-007 9.8615e-007 1.1219e-006 -8.02854e-007 4.93075e-007 5.60952e-007 -4.01427e-007 59.5024 -45.0127 129.978 -1.4684 48.9568 2.41031 4.70649 23.2022 7.55853 -59.5093 -44.9996 -130.006 1.43195 48.9478 -2.40785 -4.71254 23.195 -7.54937 
42.3106 7.01073 -4.20608 -0 -25.0011 -0 -0.0124016 -2.58238 -0.130246 -0.0307333 -5.16468 -0.261451 -0.0307333 -5.16469 -0.261451 -8.70057e-008 17.371 -8.2891e-007 1.46226e-009 7.86681 -1.73407e-007 -13.4209 12.5673 1.96804 -65.6963 -10.1215 -35.7678 20.0644 28.6176 -8.23572 -51.7071 28.7901 13.8994 -9.23648e-007 1.14933e-006 8.31043e-007 2.29866e-006 1.8473e-006 4.51673e-007 6.36111e-015 -9.54166e-015 -1.59028e-015 6.36111e-015 3.18055e-015 -1.59028e-015 -9.23648e-007 1.14933e-006 8.31043e-007 2.29866e-006 1.8473e-006 4.51673e-007 1.27222e-014 -6.36111e-015 -6.36111e-015 -9.23648e-007 1.14933e-006 8.31043e-007 2.29866e-006 1.8473e-006 4.51673e-007 1.27222e-014 -6.36111e-015 -6.36111e-015 6.36111e-015 3.18055e-015 -1.59028e-015 -9.23648e-007 1.14933e-006 8.31043e-007 2.29866e-006 1.8473e-006 4.51673e-007 1.27222e-014 -6.36111e-015 -6.36111e-015 -9.23648e-007 1.14933e-006 8.31043e-007 2.29866e-006 1.8473e-006 4.51673e-007 1.27222e-014 -6.36111e-015 -6.36111e-015 13.4708 12.3238 -1.70793 65.4879 -10.2117 36.1739 -22.0487 28.2277 8.422 51.9297 29.5751 -13.8745 -4.54389e-007 -5.87055e-007 4.0908e-007 -6.36111e-015 -3.18055e-015 -0 -6.36111e-015 -3.18055e-015 -4.77083e-015 -1.76556e-031 -6.36111e-015 -1.59028e-015 -4.54389e-007 -5.87055e-007 4.0908e-007 -6.36111e-015 0 3.18055e-015 -1.27222e-014 6.36111e-015 -1.59028e-015 -4.54389e-007 -5.87055e-007 4.0908e-007 -6.36111e-015 0 3.18055e-015 -1.27222e-014 6.36111e-015 -1.59028e-015 -1.76556e-031 -6.36111e-015 -1.59028e-015 -4.54389e-007 -5.87055e-007 4.0908e-007 -6.36111e-015 0 3.18055e-015 -1.27222e-014 6.36111e-015 -1.59028e-015 -4.54389e-007 -5.87055e-007 4.0908e-007 -6.36111e-015 0 3.18055e-015 -1.27222e-014 6.36111e-015 -1.59028e-015 57.6255 -50.5258 126.509 -1.44106 45.8554 2.27475 4.76086 21.8477 7.0365 -57.6375 -50.5149 -126.541 1.40787 45.8505 -2.27488 -4.76592 21.841 -7.02818 
42.3106 7.00451 -4.38872 -0 -25.0011 -0 -0.0139451 -2.23426 -0.130025 -0.0330067 -4.46849 -0.260894 -0.0330067 -4.46849 -0.260893 1.40739e-006 16.9 -1.03373e-006 -1.3991e-008 7.01527 -4.85654e-008 -12.9979 11.2662 0.796794 -65.3745 -10.5201 -35.9005 19.6698 28.8648 -7.54676 -51.2093 28.4913 13.0195 -1.84572e-006 2.30051e-006 1.66106e-006 -9.22859e-007 1.15025e-006 8.30529e-007 -9.22859e-007 1.15025e-006 8.30529e-007 3.18055e-015 3.18055e-015 -0 -1.84572e-006 2.30051e-006 1.66106e-006 -9.22859e-007 1.15025e-006 8.30529e-007 -9.22859e-007 1.15025e-006 8.30529e-007 -1.84572e-006 2.30051e-006 1.66106e-006 -9.22859e-007 1.15025e-006 8.30529e-007 -9.22859e-007 1.15025e-006 8.30529e-007 3.18055e-015 3.18055e-015 -0 -1.84572e-006 2.30051e-006 1.66106e-006 -9.22859e-007 1.15025e-006 8.30529e-007 -9.22859e-007 1.15025e-006 8.30529e-007 -1.84572e-006 2.30051e-006 1.66106e-006 -9.22859e-007 1.15025e-006 8.30529e-007 -9.22859e-007 1.15025e-006 8.30529e-007 13.0714 11.049 -0.517028 65.1614 -10.6196 36.307 -21.6513 28.5005 7.73243 51.401 29.2319 -12.9617 6.08907e-007 -1.18188e-006 1.88889e-006 1.59028e-014 -3.18055e-015 -3.18055e-015 -1.51687e-006 6.84691e-009 -1.07125e-006 6.36111e-015 -3.18055e-015 -0 6.08907e-007 -1.18188e-006 1.88889e-006 1.59028e-014 6.36111e-015 -0 -1.51687e-006 6.84691e-009 -1.07125e-006 6.08907e-007 -1.18188e-006 1.88889e-006 1.59028e-014 6.36111e-015 -0 -1.51687e-006 6.84691e-009 -1.07125e-006 6.36111e-015 -3.18055e-015 -0 6.08907e-007 -1.18188e-006 1.88889e-006 1.59028e-014 6.36111e-015 -0 -1.51687e-006 6.84691e-009 -1.07125e-006 6.08907e-007 -1.18188e-006 1.88889e-006 1.59028e-014 6.36111e-015 -0 -1.51687e-006 6.84691e-009 -1.07125e-006 57.5498 -50.5633 126.431 -1.50558 45.3249 2.3086 4.76218 21.8251 7.0281 -57.5619 -50.5524 -126.464 1.47354 45.3228 -2.31141 -4.76727 21.8186 -7.01981 
42.3105 6.99826 -4.57137 -0 -25.0011 -0 -0.0155013 -1.88359 -0.129719 -0.0353005 -3.76708 -0.260158 -0.0353006 -3.76707 -0.260158 -4.59239e-006 16.4291 2.0679e-006 -1.93891e-008 6.16148 8.04919e-008 -12.603 9.95472 -0.361638 -65.0533 -10.9195 -36.0312 19.2708 29.1078 -6.85402 -50.718 28.1856 12.1447 -3.18055e-015 0 3.18055e-015 -3.18055e-015 3.18055e-015 -1.59028e-015 -9.54166e-015 6.36111e-015 1.59028e-015 -3.18055e-015 0 3.18055e-015 3.18055e-015 6.36111e-015 4.77083e-015 -1.76556e-031 6.36111e-015 1.59028e-015 0 6.36111e-015 -0 3.18055e-015 6.36111e-015 4.77083e-015 -1.76556e-031 6.36111e-015 1.59028e-015 0 6.36111e-015 -0 -3.18055e-015 0 3.18055e-015 3.18055e-015 6.36111e-015 4.77083e-015 -1.76556e-031 6.36111e-015 1.59028e-015 0 6.36111e-015 -0 3.18055e-015 6.36111e-015 4.77083e-015 -1.76556e-031 6.36111e-015 1.59028e-015 0 6.36111e-015 -0 12.7001 9.76418 0.661933 64.8354 -11.0282 36.438 -21.249 28.7691 7.03874 50.8803 28.8812 -12.0551 -5.36817e-007 4.16603e-006 -2.04574e-006 -0 -3.18055e-015 -0 1.27222e-014 -3.18055e-015 -0 3.18055e-015 0 -3.18055e-015 -5.36817e-007 4.16603e-006 -2.04574e-006 6.36111e-015 -3.18055e-015 6.36111e-015 6.36111e-015 -3.18055e-015 6.36111e-015 -5.36817e-007 4.16603e-006 -2.04574e-006 6.36111e-015 -3.18055e-015 6.36111e-015 6.36111e-015 -3.18055e-015 6.36111e-015 3.18055e-015 0 -3.18055e-015 -5.36817e-007 4.16603e-006 -2.04574e-006 6.36111e-015 -3.18055e-015 6.36111e-015 6.36111e-015 -3.18055e-015 6.36111e-015 -5.36817e-007 4.16603e-006 -2.04574e-006 6.36111e-015 -3.18055e-015 6.36111e-015 6.36111e-015 -3.18055e-015 6.36111e-015 57.4737 -50.6013 126.353 -1.5685 44.7933 2.34096 4.76338 21.8032 7.01973 -57.486 -50.5902 -126.386 1.53766 44.7943 -2.34644 -4.76854 21.7967 -7.01152 
